<svg width="534" height="120" viewBox="0 0 534 120" xmlns="http://www.w3.org/2000/svg"><title>appearin-logo-name</title><g fill="none" fill-rule="evenodd"><path d="M238.751 67.358h-7.684v-6.011h-.171c-3.076 4.364-7.856 7.329-13.579 7.329-12.212 0-19.13-9.8-19.13-20.834 0-10.54 7.26-20.175 18.874-20.175 5.892 0 10.675 2.966 13.835 7.576h.171v-6.422h7.684v38.537zm-7.257-19.268c0-7.494-4.699-13.835-12.981-13.835-7.943 0-12.639 6.67-12.639 13.835 0 7.245 4.525 13.998 12.639 13.998 8.369 0 12.981-6.422 12.981-13.998zm22.889-12.847h.169c3.16-4.61 7.943-7.576 13.922-7.576 11.529 0 18.786 9.635 18.786 20.175 0 11.034-6.83 20.834-19.129 20.834-5.636 0-10.504-2.965-13.579-7.329h-.169v28.08h-7.686V28.821h7.686v6.422zm25.191 12.847c0-7.494-4.696-13.835-12.979-13.835-7.943 0-12.638 6.67-12.638 13.835 0 7.245 4.524 13.998 12.638 13.998 8.37 0 12.979-6.422 12.979-13.998zm20.841-12.847h.169c3.16-4.61 7.943-7.576 13.922-7.576 11.529 0 18.786 9.635 18.786 20.175 0 11.034-6.83 20.834-19.129 20.834-5.636 0-10.504-2.965-13.579-7.329h-.169v28.08h-7.687V28.821h7.687v6.422zm25.19 12.847c0-7.494-4.696-13.835-12.978-13.835-7.943 0-12.639 6.67-12.639 13.835 0 7.245 4.525 13.998 12.639 13.998 8.369 0 12.978-6.422 12.978-13.998zm19.388 1.235c.087 6.587 4.698 12.763 12.043 12.763 5.892 0 9.052-2.881 11.956-7.493l6.488 3.541c-3.756 6.67-10.76 10.54-18.531 10.54-12.212 0-19.641-8.894-19.641-20.257 0-11.858 6.575-20.752 19.469-20.752 12.726 0 18.703 9.059 18.703 20.505v1.153h-30.487zm22.802-5.6c-.941-5.764-4.867-9.634-11.018-9.634-5.976 0-10.417 4.117-11.357 9.634h22.375zm52.093 23.633h-7.684v-6.011h-.171c-3.076 4.364-7.856 7.329-13.58 7.329-12.211 0-19.129-9.8-19.129-20.834 0-10.54 7.26-20.175 18.874-20.175 5.892 0 10.675 2.966 13.835 7.576h.171v-6.422h7.684v38.537zm-7.257-19.268c0-7.494-4.699-13.835-12.981-13.835-7.943 0-12.639 6.67-12.639 13.835 0 7.245 4.525 13.998 12.639 13.998 8.369 0 12.981-6.422 12.981-13.998zm25.279-13.01h.256c1.879-4.53 5.808-7.413 10.931-7.413 2.221 0 4.44.743 6.319 1.895l-3.499 6.753c-1.368-1.154-2.904-1.566-4.699-1.566-8.283 0-9.308 7.411-9.308 13.67v18.939h-7.686V28.821h7.686v6.259m29.72 28.82c0 2.635-2.221 4.776-4.954 4.776-2.733 0-4.951-2.141-4.951-4.776 0-2.553 2.218-4.776 4.951-4.776 2.733 0 4.954 2.223 4.954 4.776m23.399-52.701c0 2.8-2.391 5.023-5.295 5.023s-5.294-2.223-5.294-5.023c0-2.882 2.39-5.187 5.294-5.187 2.904 0 5.295 2.305 5.295 5.187zm-9.137 17.622h7.684v38.537h-7.684V28.821zm25.277 5.188h.172c2.392-4.118 7.173-6.342 12.042-6.342 11.271 0 14.175 7.33 14.175 16.717v22.974h-7.687V45.289c0-6.587-.938-11.034-8.793-11.034-9.909 0-9.909 8.399-9.909 15.399v17.704h-7.684V28.821h7.684v5.188" fill="#FFF"/><path d="M129.659 71.223c0 4.477-3.737 8.141-8.305 8.141H25.369c-4.567 0-8.304-3.664-8.304-8.141V8.495c0-4.478 3.737-8.141 8.304-8.141h95.985c4.568 0 8.305 3.663 8.305 8.141v62.728m24.284 6.527l-12.017-8.533c-2.494-1.771-3.963-4.552-3.963-7.506V18.006c0-2.954 1.469-5.735 3.963-7.506l12.017-8.533c1.517-1.077 3.681-.051 3.681 1.745v72.293c0 1.796-2.164 2.822-3.681 1.745" fill="#41CC8D"/><path d="M104.731 16.636H8.746c-4.567 0-8.304 3.664-8.304 8.142v62.727c0 4.478 3.737 8.142 8.304 8.142h28.017l39.939 24.213V95.647h28.029c4.567 0 8.304-3.664 8.304-8.142V24.778c0-4.478-3.737-8.142-8.304-8.142" fill="#FF2E63"/><path d="M76.709 75.349h-7.566v-6.018h-.169c-3.028 4.369-7.735 7.336-13.371 7.336-12.024 0-18.835-9.809-18.835-20.856 0-10.551 7.149-20.195 18.584-20.195 5.802 0 10.511 2.968 13.622 7.584h.169v-6.43h7.566v38.579zm-7.146-19.29c0-7.501-4.626-13.849-12.782-13.849-7.82 0-12.444 6.677-12.444 13.849 0 7.254 4.455 14.014 12.444 14.014 8.241 0 12.782-6.43 12.782-14.014z" fill="#FFF"/></g></svg>